<?xml version="1.0" encoding="UTF-8" standalone="no"?>
<!-- Created with Inkscape (http://www.inkscape.org/) -->

<svg
   xmlns:dc="http://purl.org/dc/elements/1.1/"
   xmlns:cc="http://creativecommons.org/ns#"
   xmlns:rdf="http://www.w3.org/1999/02/22-rdf-syntax-ns#"
   xmlns:svg="http://www.w3.org/2000/svg"
   xmlns="http://www.w3.org/2000/svg"
   xmlns:sodipodi="http://sodipodi.sourceforge.net/DTD/sodipodi-0.dtd"
   xmlns:inkscape="http://www.inkscape.org/namespaces/inkscape"
   version="1.1"
   id="svg834"
   xml:space="preserve"
   width="191.59999"
   height="93.333328"
   viewBox="0 0 191.6 93.333332"
   sodipodi:docname="bbright.svg"
   inkscape:version="0.92.2 5c3e80d, 2017-08-06"><metadata
     id="metadata840"><rdf:RDF><cc:Work
         rdf:about=""><dc:format>image/svg+xml</dc:format><dc:type
           rdf:resource="http://purl.org/dc/dcmitype/StillImage" /><dc:title></dc:title></cc:Work></rdf:RDF></metadata><defs
     id="defs838"><clipPath
       clipPathUnits="userSpaceOnUse"
       id="clipPath850"><path
         d="M 0,0 H 1600 V 1000 H 0 Z"
         id="path848"
         inkscape:connector-curvature="0" /></clipPath></defs><sodipodi:namedview
     pagecolor="#ffffff"
     bordercolor="#666666"
     borderopacity="1"
     objecttolerance="10"
     gridtolerance="10"
     guidetolerance="10"
     inkscape:pageopacity="0"
     inkscape:pageshadow="2"
     inkscape:window-width="738"
     inkscape:window-height="480"
     id="namedview836"
     showgrid="false"
     fit-margin-top="0"
     fit-margin-left="0"
     fit-margin-right="0"
     fit-margin-bottom="0"
     inkscape:zoom="0.43968752"
     inkscape:cx="-28.550013"
     inkscape:cy="-138.66664"
     inkscape:window-x="0"
     inkscape:window-y="0"
     inkscape:window-maximized="0"
     inkscape:current-layer="g884" /><g
     id="g842"
     inkscape:groupmode="layer"
     inkscape:label="BBBBBBB"
     transform="matrix(1.3333333,0,0,-1.3333333,-1095.2166,898.66664)"><g
       id="g844"><g
         id="g846"
         clip-path="url(#clipPath850)"><g
           id="g852"
           transform="translate(991.1875,674)"><path
             d="m 0,0 v -70 h 41.7 c 13.3,0 22.4,8.2 22.4,20.4 0,5.9 -2,11 -6.5,14.7 4.7,3.7 6.5,9 6.5,14.6 C 64.1,-8.1 55,0 41.7,0 Z m 17.433,-27.3 c -4.5,0 -8.1,1.4 -8.1,5.8 0,4.4 3.6,6 8.1,6 h 25 V -27.3 Z M 40.4,-54.5 H 15.5 v 11.8 h 24.9 c 4.5,0 8.2,-1.5 8.2,-5.9 0,-4.4 -3.7,-5.9 -8.2,-5.9 M 79.6,0 v -70 h 41.7 c 13.3,0 22.4,8.2 22.4,20.4 0,5.9 -2,11 -6.5,14.7 4.7,3.7 6.5,9 6.5,14.6 0,12.2 -9.1,20.3 -22.4,20.3 z m 48.6,-27.3 H 95.1 v 11.8 h 33.1 z m -7.167,-27.2 h -30.1 v 11.8 h 30.1 z"
             style="fill:#231f20;fill-opacity:1;fill-rule:nonzero;stroke:none"
             id="path854"
             inkscape:connector-curvature="0" /></g><g
           id="g856"
           transform="translate(634.8875,674)"><path
             d="m 0,0 v -70 h 41.7 c 13.3,0 22.4,8.2 22.4,20.4 0,5.9 -2,11 -6.5,14.7 4.7,3.7 6.5,9 6.5,14.6 C 64.1,-8.1 55,0 41.7,0 Z m 17.433,-27.3 c -4.5,0 -8.1,1.4 -8.1,5.8 0,4.4 3.6,6 8.1,6 h 25 V -27.3 Z M 40.4,-54.5 H 15.5 v 11.8 h 24.9 c 4.5,0 8.2,-1.5 8.2,-5.9 0,-4.4 -3.7,-5.9 -8.2,-5.9 M 79.6,0 v -70 h 41.7 c 13.3,0 22.4,8.2 22.4,20.4 0,5.9 -2,11 -6.5,14.7 4.7,3.7 6.5,9 6.5,14.6 0,12.2 -9.1,20.3 -22.4,20.3 z m 48.6,-27.3 H 95.1 v 11.8 h 33.1 z m -7.167,-27.2 h -30.1 v 11.8 h 30.1 z"
             style="fill:#231f20;fill-opacity:1;fill-rule:nonzero;stroke:none"
             id="path858"
             inkscape:connector-curvature="0" /></g><g
           id="g860"
           transform="translate(991.1875,481)"><path
             d="m 0,0 v -70 h 41.7 c 13.3,0 22.4,8.2 22.4,20.4 0,5.9 -2,11 -6.5,14.7 4.7,3.7 6.5,9 6.5,14.6 C 64.1,-8.1 55,0 41.7,0 Z m 17.433,-27.3 c -4.5,0 -8.1,1.4 -8.1,5.8 0,4.4 3.6,6 8.1,6 h 25 V -27.3 Z M 40.4,-54.5 H 15.5 v 11.8 h 24.9 c 4.5,0 8.2,-1.5 8.2,-5.9 0,-4.4 -3.7,-5.9 -8.2,-5.9 M 79.6,0 v -70 h 41.7 c 13.3,0 22.4,8.2 22.4,20.4 0,5.9 -2,11 -6.5,14.7 4.7,3.7 6.5,9 6.5,14.6 0,12.2 -9.1,20.3 -22.4,20.3 z m 48.6,-27.3 H 95.1 v 11.8 h 33.1 z m -7.167,-27.2 h -30.1 v 11.8 h 30.1 z"
             style="fill:#231f20;fill-opacity:1;fill-rule:nonzero;stroke:none"
             id="path862"
             inkscape:connector-curvature="0" /></g><g
           id="g864"
           transform="translate(634.8875,481)"><path
             d="m 0,0 v -70 h 41.7 c 13.3,0 22.4,8.2 22.4,20.4 0,5.9 -2,11 -6.5,14.7 4.7,3.7 6.5,9 6.5,14.6 C 64.1,-8.1 55,0 41.7,0 Z m 17.433,-27.3 c -4.5,0 -8.1,1.4 -8.1,5.8 0,4.4 3.6,6 8.1,6 h 25 V -27.3 Z M 40.4,-54.5 H 15.5 v 11.8 h 24.9 c 4.5,0 8.2,-1.5 8.2,-5.9 0,-4.4 -3.7,-5.9 -8.2,-5.9 M 79.6,0 v -70 h 41.7 c 13.3,0 22.4,8.2 22.4,20.4 0,5.9 -2,11 -6.5,14.7 4.7,3.7 6.5,9 6.5,14.6 0,12.2 -9.1,20.3 -22.4,20.3 z m 48.6,-27.3 H 95.1 v 11.8 h 33.1 z m -7.167,-27.2 h -30.1 v 11.8 h 30.1 z"
             style="fill:#231f20;fill-opacity:1;fill-rule:nonzero;stroke:none"
             id="path866"
             inkscape:connector-curvature="0" /></g><g
           id="g868"
           transform="translate(991.1875,589)"><path
             d="m 0,0 v -70 h 41.7 c 13.3,0 22.4,8.2 22.4,20.4 0,5.9 -2,11 -6.5,14.7 4.7,3.7 6.5,9 6.5,14.6 C 64.1,-8.1 55,0 41.7,0 Z m 17.433,-27.3 c -4.5,0 -8.1,1.4 -8.1,5.8 0,4.4 3.6,6 8.1,6 h 25 V -27.3 Z M 40.4,-54.5 H 15.5 v 11.8 h 24.9 c 4.5,0 8.2,-1.5 8.2,-5.9 0,-4.4 -3.7,-5.9 -8.2,-5.9 M 79.6,0 v -70 h 41.7 c 13.3,0 22.4,8.2 22.4,20.4 0,5.9 -2,11 -6.5,14.7 4.7,3.7 6.5,9 6.5,14.6 0,12.2 -9.1,20.3 -22.4,20.3 z m 48.6,-27.3 H 95.1 v 11.8 h 33.1 z m -7.167,-27.2 h -30.1 v 11.8 h 30.1 z"
             style="fill:#231f20;fill-opacity:1;fill-rule:nonzero;stroke:none"
             id="path870"
             inkscape:connector-curvature="0" /></g><g
           id="g872"
           transform="translate(634.8875,589)"><path
             d="m 0,0 v -70 h 41.7 c 13.3,0 22.4,8.2 22.4,20.4 0,5.9 -2,11 -6.5,14.7 4.7,3.7 6.5,9 6.5,14.6 C 64.1,-8.1 55,0 41.7,0 Z m 17.433,-27.3 c -4.5,0 -8.1,1.4 -8.1,5.8 0,4.4 3.6,6 8.1,6 h 25 V -27.3 Z M 40.4,-54.5 H 15.5 v 11.8 h 24.9 c 4.5,0 8.2,-1.5 8.2,-5.9 0,-4.4 -3.7,-5.9 -8.2,-5.9 M 79.6,0 v -70 h 41.7 c 13.3,0 22.4,8.2 22.4,20.4 0,5.9 -2,11 -6.5,14.7 4.7,3.7 6.5,9 6.5,14.6 0,12.2 -9.1,20.3 -22.4,20.3 z m 48.6,-27.3 H 95.1 v 11.8 h 33.1 z m -7.167,-27.2 h -30.1 v 11.8 h 30.1 z"
             style="fill:#231f20;fill-opacity:1;fill-rule:nonzero;stroke:none"
             id="path874"
             inkscape:connector-curvature="0" /></g><g
           id="g876"
           transform="translate(991.1875,396)"><path
             d="m 0,0 v -70 h 41.7 c 13.3,0 22.4,8.2 22.4,20.4 0,5.9 -2,11 -6.5,14.7 4.7,3.7 6.5,9 6.5,14.6 C 64.1,-8.1 55,0 41.7,0 Z m 17.433,-27.3 c -4.5,0 -8.1,1.4 -8.1,5.8 0,4.4 3.6,6 8.1,6 h 25 V -27.3 Z M 40.4,-54.5 H 15.5 v 11.8 h 24.9 c 4.5,0 8.2,-1.5 8.2,-5.9 0,-4.4 -3.7,-5.9 -8.2,-5.9 M 79.6,0 v -70 h 41.7 c 13.3,0 22.4,8.2 22.4,20.4 0,5.9 -2,11 -6.5,14.7 4.7,3.7 6.5,9 6.5,14.6 0,12.2 -9.1,20.3 -22.4,20.3 z m 48.6,-27.3 H 95.1 v 11.8 h 33.1 z m -7.167,-27.2 h -30.1 v 11.8 h 30.1 z"
             style="fill:#231f20;fill-opacity:1;fill-rule:nonzero;stroke:none"
             id="path878"
             inkscape:connector-curvature="0" /></g><g
           id="g880"
           transform="translate(634.8875,396)"><path
             d="m 0,0 v -70 h 41.7 c 13.3,0 22.4,8.2 22.4,20.4 0,5.9 -2,11 -6.5,14.7 4.7,3.7 6.5,9 6.5,14.6 C 64.1,-8.1 55,0 41.7,0 Z m 17.433,-27.3 c -4.5,0 -8.1,1.4 -8.1,5.8 0,4.4 3.6,6 8.1,6 h 25 V -27.3 Z M 40.4,-54.5 H 15.5 v 11.8 h 24.9 c 4.5,0 8.2,-1.5 8.2,-5.9 0,-4.4 -3.7,-5.9 -8.2,-5.9 M 79.6,0 v -70 h 41.7 c 13.3,0 22.4,8.2 22.4,20.4 0,5.9 -2,11 -6.5,14.7 4.7,3.7 6.5,9 6.5,14.6 0,12.2 -9.1,20.3 -22.4,20.3 z m 48.6,-27.3 H 95.1 v 11.8 h 33.1 z m -7.167,-27.2 h -30.1 v 11.8 h 30.1 z"
             style="fill:#231f20;fill-opacity:1;fill-rule:nonzero;stroke:none"
             id="path882"
             inkscape:connector-curvature="0" /></g><g
           id="g884"
           transform="translate(965.1125,674)"><path
             d="m 0,0 v -70 h -41.7 c -13.3,0 -22.4,8.2 -22.4,20.4 0,5.9 2,11 6.5,14.7 -4.7,3.7 -6.5,9 -6.5,14.6 0,12.2 9.1,20.3 22.4,20.3 z m -17.433,-27.3 c 4.5,0 8.1,1.4 8.1,5.8 0,4.4 -3.6,6 -8.1,6 h -25 V -27.3 Z M -40.4,-54.5 h 24.9 v 11.8 h -24.9 c -4.5,0 -8.2,-1.5 -8.2,-5.9 0,-4.4 3.7,-5.9 8.2,-5.9 M -79.6,0 v -70 h -41.7 c -13.3,0 -22.4,8.2 -22.4,20.4 0,5.9 2,11 6.5,14.7 -4.7,3.7 -6.5,9 -6.5,14.6 0,12.2 9.1,20.3 22.4,20.3 z m -48.6,-27.3 h 33.1 v 0 11.8 h -33.1 z m 7.167,-27.2 h 30.1 v 11.8 h -30.1 z"
             style="fill:#231f20;fill-opacity:1;fill-rule:nonzero;stroke:none"
             id="path886"
             inkscape:connector-curvature="0"
             sodipodi:nodetypes="ccsscsscsssccscccsscccsscsscccccccccccc" /></g><g
           id="g888"
           transform="translate(608.8125,674)"><path
             d="m 0,0 v -70 h -41.7 c -13.3,0 -22.4,8.2 -22.4,20.4 0,5.9 2,11 6.5,14.7 -4.7,3.7 -6.5,9 -6.5,14.6 0,12.2 9.1,20.3 22.4,20.3 z m -17.433,-27.3 c 4.5,0 8.1,1.4 8.1,5.8 0,4.4 -3.6,6 -8.1,6 h -25 V -27.3 Z M -40.4,-54.5 h 24.9 v 11.8 h -24.9 c -4.5,0 -8.2,-1.5 -8.2,-5.9 0,-4.4 3.7,-5.9 8.2,-5.9 M -79.6,0 v -70 h -41.7 c -13.3,0 -22.4,8.2 -22.4,20.4 0,5.9 2,11 6.5,14.7 -4.7,3.7 -6.5,9 -6.5,14.6 0,12.2 9.1,20.3 22.4,20.3 z m -48.6,-27.3 h 33.1 v 11.8 h -33.1 z m 7.167,-27.2 h 30.1 v 11.8 h -30.1 z"
             style="fill:#231f20;fill-opacity:1;fill-rule:nonzero;stroke:none"
             id="path890"
             inkscape:connector-curvature="0" /></g><g
           id="g892"
           transform="translate(965.1125,481)"><path
             d="m 0,0 v -70 h -41.7 c -13.3,0 -22.4,8.2 -22.4,20.4 0,5.9 2,11 6.5,14.7 -4.7,3.7 -6.5,9 -6.5,14.6 0,12.2 9.1,20.3 22.4,20.3 z m -17.433,-27.3 c 4.5,0 8.1,1.4 8.1,5.8 0,4.4 -3.6,6 -8.1,6 h -25 V -27.3 Z M -40.4,-54.5 h 24.9 v 11.8 h -24.9 c -4.5,0 -8.2,-1.5 -8.2,-5.9 0,-4.4 3.7,-5.9 8.2,-5.9 M -79.6,0 v -70 h -41.7 c -13.3,0 -22.4,8.2 -22.4,20.4 0,5.9 2,11 6.5,14.7 -4.7,3.7 -6.5,9 -6.5,14.6 0,12.2 9.1,20.3 22.4,20.3 z m -48.6,-27.3 h 33.1 v 11.8 h -33.1 z m 7.167,-27.2 h 30.1 v 11.8 h -30.1 z"
             style="fill:#231f20;fill-opacity:1;fill-rule:nonzero;stroke:none"
             id="path894"
             inkscape:connector-curvature="0" /></g><g
           id="g896"
           transform="translate(608.8125,481)"><path
             d="m 0,0 v -70 h -41.7 c -13.3,0 -22.4,8.2 -22.4,20.4 0,5.9 2,11 6.5,14.7 -4.7,3.7 -6.5,9 -6.5,14.6 0,12.2 9.1,20.3 22.4,20.3 z m -17.433,-27.3 c 4.5,0 8.1,1.4 8.1,5.8 0,4.4 -3.6,6 -8.1,6 h -25 V -27.3 Z M -40.4,-54.5 h 24.9 v 11.8 h -24.9 c -4.5,0 -8.2,-1.5 -8.2,-5.9 0,-4.4 3.7,-5.9 8.2,-5.9 M -79.6,0 v -70 h -41.7 c -13.3,0 -22.4,8.2 -22.4,20.4 0,5.9 2,11 6.5,14.7 -4.7,3.7 -6.5,9 -6.5,14.6 0,12.2 9.1,20.3 22.4,20.3 z m -48.6,-27.3 h 33.1 v 11.8 h -33.1 z m 7.167,-27.2 h 30.1 v 11.8 h -30.1 z"
             style="fill:#231f20;fill-opacity:1;fill-rule:nonzero;stroke:none"
             id="path898"
             inkscape:connector-curvature="0" /></g><g
           id="g900"
           transform="translate(965.1125,589)"><path
             d="m 0,0 v -70 h -41.7 c -13.3,0 -22.4,8.2 -22.4,20.4 0,5.9 2,11 6.5,14.7 -4.7,3.7 -6.5,9 -6.5,14.6 0,12.2 9.1,20.3 22.4,20.3 z m -17.433,-27.3 c 4.5,0 8.1,1.4 8.1,5.8 0,4.4 -3.6,6 -8.1,6 h -25 V -27.3 Z M -40.4,-54.5 h 24.9 v 11.8 h -24.9 c -4.5,0 -8.2,-1.5 -8.2,-5.9 0,-4.4 3.7,-5.9 8.2,-5.9 M -79.6,0 v -70 h -41.7 c -13.3,0 -22.4,8.2 -22.4,20.4 0,5.9 2,11 6.5,14.7 -4.7,3.7 -6.5,9 -6.5,14.6 0,12.2 9.1,20.3 22.4,20.3 z m -48.6,-27.3 h 33.1 v 11.8 h -33.1 z m 7.167,-27.2 h 30.1 v 11.8 h -30.1 z"
             style="fill:#231f20;fill-opacity:1;fill-rule:nonzero;stroke:none"
             id="path902"
             inkscape:connector-curvature="0" /></g><g
           id="g904"
           transform="translate(608.8125,589)"><path
             d="m 0,0 v -70 h -41.7 c -13.3,0 -22.4,8.2 -22.4,20.4 0,5.9 2,11 6.5,14.7 -4.7,3.7 -6.5,9 -6.5,14.6 0,12.2 9.1,20.3 22.4,20.3 z m -17.433,-27.3 c 4.5,0 8.1,1.4 8.1,5.8 0,4.4 -3.6,6 -8.1,6 h -25 V -27.3 Z M -40.4,-54.5 h 24.9 v 11.8 h -24.9 c -4.5,0 -8.2,-1.5 -8.2,-5.9 0,-4.4 3.7,-5.9 8.2,-5.9 M -79.6,0 v -70 h -41.7 c -13.3,0 -22.4,8.2 -22.4,20.4 0,5.9 2,11 6.5,14.7 -4.7,3.7 -6.5,9 -6.5,14.6 0,12.2 9.1,20.3 22.4,20.3 z m -48.6,-27.3 h 33.1 v 11.8 h -33.1 z m 7.167,-27.2 h 30.1 v 11.8 h -30.1 z"
             style="fill:#231f20;fill-opacity:1;fill-rule:nonzero;stroke:none"
             id="path906"
             inkscape:connector-curvature="0" /></g><g
           id="g908"
           transform="translate(965.1125,396)"><path
             d="m 0,0 v -70 h -41.7 c -13.3,0 -22.4,8.2 -22.4,20.4 0,5.9 2,11 6.5,14.7 -4.7,3.7 -6.5,9 -6.5,14.6 0,12.2 9.1,20.3 22.4,20.3 z m -17.433,-27.3 c 4.5,0 8.1,1.4 8.1,5.8 0,4.4 -3.6,6 -8.1,6 h -25 V -27.3 Z M -40.4,-54.5 h 24.9 v 11.8 h -24.9 c -4.5,0 -8.2,-1.5 -8.2,-5.9 0,-4.4 3.7,-5.9 8.2,-5.9 M -79.6,0 v -70 h -41.7 c -13.3,0 -22.4,8.2 -22.4,20.4 0,5.9 2,11 6.5,14.7 -4.7,3.7 -6.5,9 -6.5,14.6 0,12.2 9.1,20.3 22.4,20.3 z m -48.6,-27.3 h 33.1 v 11.8 h -33.1 z m 7.167,-27.2 h 30.1 v 11.8 h -30.1 z"
             style="fill:#231f20;fill-opacity:1;fill-rule:nonzero;stroke:none"
             id="path910"
             inkscape:connector-curvature="0" /></g><g
           id="g912"
           transform="translate(608.8125,396)"><path
             d="m 0,0 v -70 h -41.7 c -13.3,0 -22.4,8.2 -22.4,20.4 0,5.9 2,11 6.5,14.7 -4.7,3.7 -6.5,9 -6.5,14.6 0,12.2 9.1,20.3 22.4,20.3 z m -17.433,-27.3 c 4.5,0 8.1,1.4 8.1,5.8 0,4.4 -3.6,6 -8.1,6 h -25 V -27.3 Z M -40.4,-54.5 h 24.9 v 11.8 h -24.9 c -4.5,0 -8.2,-1.5 -8.2,-5.9 0,-4.4 3.7,-5.9 8.2,-5.9 M -79.6,0 v -70 h -41.7 c -13.3,0 -22.4,8.2 -22.4,20.4 0,5.9 2,11 6.5,14.7 -4.7,3.7 -6.5,9 -6.5,14.6 0,12.2 9.1,20.3 22.4,20.3 z m -48.6,-27.3 h 33.1 v 11.8 h -33.1 z m 7.167,-27.2 h 30.1 v 11.8 h -30.1 z"
             style="fill:#231f20;fill-opacity:1;fill-rule:nonzero;stroke:none"
             id="path914"
             inkscape:connector-curvature="0" /></g></g></g></g></svg>